<svg width="41" height="38" viewBox="0 0 41 38" fill="none" xmlns="http://www.w3.org/2000/svg">
<ellipse cx="20.5" cy="19" rx="20.5" ry="19" fill="white"/>
<path d="M32.0723 10.945C31.4614 10.3284 30.7361 9.83921 29.9378 9.50549C29.1396 9.17177 28.2839 9 27.4199 9C26.5558 9 25.7001 9.17177 24.9019 9.50549C24.1036 9.83921 23.3783 10.3284 22.7674 10.945L21.4997 12.224L20.2319 10.945C18.998 9.70004 17.3245 9.00065 15.5795 9.00065C13.8345 9.00065 12.161 9.70004 10.9271 10.945C9.6932 12.1899 9 13.8784 9 15.6389C9 17.3995 9.6932 19.088 10.9271 20.3329L12.1948 21.612L21.4997 31L30.8045 21.612L32.0723 20.3329C32.6834 19.7166 33.1682 18.9849 33.499 18.1794C33.8298 17.374 34 16.5108 34 15.6389C34 14.7671 33.8298 13.9039 33.499 13.0985C33.1682 12.293 32.6834 11.5613 32.0723 10.945Z" stroke="#FF0000" stroke-width="2" stroke-linecap="round" stroke-linejoin="round"/>
</svg>
